<svg version="1.1" id="Layer_1" xmlns="http://www.w3.org/2000/svg" xmlns:xlink="http://www.w3.org/1999/xlink" x="0px" y="0px"
	 width="100%" viewBox="0 0 512 512" enable-background="new 0 0 512 512" xml:space="preserve">
<path fill="#000000" opacity="1.000000" stroke="none" 
	d="
M460.000000,513.000000 
	C307.082672,513.000000 154.165375,513.000000 1.000000,513.000000 
	C1.000000,400.976807 1.000000,288.953400 1.372887,176.203766 
	C2.142636,175.984634 2.832056,176.458710 2.893643,177.003723 
	C4.501713,191.235001 9.451747,204.464600 15.698074,217.141052 
	C24.724922,235.460373 37.348976,251.056686 53.341892,263.856873 
	C58.998287,268.384033 59.141209,268.554779 54.233284,274.203613 
	C45.915581,283.776917 37.377281,293.158905 28.909426,302.601288 
	C25.244225,306.688324 23.742037,311.189178 25.863171,316.545197 
	C28.093594,322.177185 32.024593,325.477783 38.238640,324.951508 
	C48.194435,324.108246 58.279942,323.732697 68.032196,321.773560 
	C87.770035,317.808411 107.005684,311.983154 125.180809,303.044617 
	C126.583496,302.354767 128.568970,302.417053 130.191788,302.685150 
	C136.118011,303.664215 141.998077,304.918762 147.910004,305.989685 
	C151.521225,306.643890 155.158875,307.152222 158.622757,307.700409 
	C155.427841,323.518341 153.051758,338.613708 154.723740,354.436798 
	C156.337448,369.708282 159.886047,384.298645 166.177353,398.035034 
	C176.470886,420.509796 191.451675,439.428833 211.098755,454.820190 
	C227.803131,467.906311 245.933517,478.006012 265.866425,485.022919 
	C287.976898,492.806427 310.710052,496.478943 334.201935,496.101166 
	C348.049072,495.878479 361.765472,495.270874 375.297211,492.069550 
	C381.558472,490.588287 387.514862,489.652313 394.065613,492.828156 
	C414.209961,502.594177 435.626160,508.384308 457.872437,511.077637 
	C458.647858,511.171478 459.293762,512.335022 460.000000,513.000000 
z"/>
<path fill="#000000" opacity="1.000000" stroke="none" 
	d="
M209.000000,0.999999 
	C310.262299,1.000000 411.524567,1.000000 513.000000,1.000000 
	C513.000000,106.688004 513.000000,212.376160 512.640625,318.810303 
	C511.876984,319.053223 511.197540,318.594482 511.108246,318.040558 
	C508.083679,299.279297 500.527039,282.364075 490.198425,266.581726 
	C480.980804,252.497009 469.739258,240.334015 456.495483,229.862274 
	C442.231598,218.583923 426.796661,209.622314 409.908844,202.863388 
	C392.596497,195.934509 374.702698,191.726395 356.179169,189.531601 
	C356.179169,188.182968 356.007751,186.859268 356.207245,185.594040 
	C357.423462,177.879745 359.791473,170.172897 359.749359,162.474625 
	C359.684143,150.541153 359.069244,138.405777 356.779053,126.730339 
	C351.340454,99.004784 337.458008,75.484299 317.807678,55.369816 
	C306.324005,43.614864 293.156464,34.061478 278.858459,25.899229 
	C257.723877,13.834202 235.154373,6.324963 211.124619,2.924512 
	C210.341309,2.813668 209.704895,1.664922 209.000000,0.999999 
z"/>
<path fill="#438EFF" opacity="1.000000" stroke="none" 
	d="
M208.531342,0.999999 
	C209.704895,1.664922 210.341309,2.813668 211.124619,2.924512 
	C235.154373,6.324963 257.723877,13.834202 278.858459,25.899229 
	C293.156464,34.061478 306.324005,43.614864 317.807678,55.369816 
	C337.458008,75.484299 351.340454,99.004784 356.779053,126.730339 
	C359.069244,138.405777 359.684143,150.541153 359.749359,162.474625 
	C359.791473,170.172897 357.423462,177.879745 356.207245,185.594040 
	C356.007751,186.859268 356.179169,188.182968 356.179169,189.531601 
	C374.702698,191.726395 392.596497,195.934509 409.908844,202.863388 
	C426.796661,209.622314 442.231598,218.583923 456.495483,229.862274 
	C469.739258,240.334015 480.980804,252.497009 490.198425,266.581726 
	C500.527039,282.364075 508.083679,299.279297 511.108246,318.040558 
	C511.197540,318.594482 511.876984,319.053223 512.640625,319.278168 
	C513.000000,333.687561 513.000000,348.375122 512.636902,363.256531 
	C511.871552,363.954071 511.254028,364.399445 511.099335,364.970245 
	C508.693726,373.847534 507.041443,382.998199 503.857605,391.582245 
	C494.560791,416.647583 479.190521,437.492737 458.044800,453.913391 
	C455.633423,455.786011 455.552765,456.852081 457.373169,458.920898 
	C466.586700,469.391724 475.588776,480.052948 484.966827,490.373138 
	C490.787811,496.778931 490.351624,505.708954 483.457336,510.878296 
	C482.806915,511.365967 482.478119,512.282532 482.000000,513.000000 
	C474.979034,513.000000 467.958099,513.000000 460.468567,513.000000 
	C459.293762,512.335022 458.647858,511.171478 457.872437,511.077637 
	C435.626160,508.384308 414.209961,502.594177 394.065613,492.828156 
	C387.514862,489.652313 381.558472,490.588287 375.297211,492.069550 
	C361.765472,495.270874 348.049072,495.878479 334.201935,496.101166 
	C310.710052,496.478943 287.976898,492.806427 265.866425,485.022919 
	C245.933517,478.006012 227.803131,467.906311 211.098755,454.820190 
	C191.451675,439.428833 176.470886,420.509796 166.177353,398.035034 
	C159.886047,384.298645 156.337448,369.708282 154.723740,354.436798 
	C153.051758,338.613708 155.427841,323.518341 158.622757,307.700409 
	C155.158875,307.152222 151.521225,306.643890 147.910004,305.989685 
	C141.998077,304.918762 136.118011,303.664215 130.191788,302.685150 
	C128.568970,302.417053 126.583496,302.354767 125.180809,303.044617 
	C107.005684,311.983154 87.770035,317.808411 68.032196,321.773560 
	C58.279942,323.732697 48.194435,324.108246 38.238640,324.951508 
	C32.024593,325.477783 28.093594,322.177185 25.863171,316.545197 
	C23.742037,311.189178 25.244225,306.688324 28.909426,302.601288 
	C37.377281,293.158905 45.915581,283.776917 54.233284,274.203613 
	C59.141209,268.554779 58.998287,268.384033 53.341892,263.856873 
	C37.348976,251.056686 24.724922,235.460373 15.698074,217.141052 
	C9.451747,204.464600 4.501713,191.235001 2.893643,177.003723 
	C2.832056,176.458710 2.142636,175.984634 1.372887,175.738754 
	C1.000000,168.312424 1.000000,160.624832 1.267494,152.259903 
	C3.733313,147.497925 6.963339,145.081619 11.708323,146.456528 
	C16.305822,147.788681 17.930010,151.336884 18.115643,156.020691 
	C19.115459,181.247665 26.693640,204.342636 41.114113,225.103729 
	C49.936699,237.805573 60.761719,248.531464 73.487129,257.353882 
	C80.342041,262.106354 81.038116,265.778839 76.572502,272.893005 
	C74.539032,276.132477 72.486748,279.386536 70.139656,282.397583 
	C64.042976,290.218933 57.778240,297.909271 50.583557,306.897400 
	C57.510494,305.423126 63.248871,304.201813 69.405121,303.044617 
	C71.292427,302.876221 72.777756,302.716614 74.228844,302.400024 
	C90.206360,298.913849 105.270248,292.942139 120.062767,286.061707 
	C123.210190,284.597717 127.355774,284.505554 130.922958,284.887726 
	C137.320297,285.573181 143.627655,287.098145 150.289001,288.490784 
	C153.060715,289.109772 155.517838,289.499695 157.971008,289.913025 
	C162.840363,290.733429 165.970581,289.710297 168.383881,284.432037 
	C179.797577,259.468445 197.614212,239.714676 219.986694,224.067520 
	C227.722092,218.657440 235.978470,213.992264 244.355042,208.934753 
	C272.830811,195.802856 302.282379,188.665298 333.403870,188.666306 
	C334.895660,188.666367 337.354980,186.798019 337.734558,185.367493 
	C343.631927,163.142166 343.642059,140.825226 336.379669,118.987251 
	C322.558258,77.426224 292.938629,50.550365 253.890396,33.275169 
	C221.817719,19.086010 188.140366,14.799002 153.478806,20.199156 
	C142.566635,21.899237 131.906601,25.217690 120.742798,27.850677 
	C120.028214,27.971756 119.688553,27.999380 119.377708,28.108856 
	C84.556496,40.372272 55.983208,60.733932 36.161186,92.402252 
	C34.102795,95.690811 31.632666,98.149620 27.425783,98.004951 
	C21.952131,97.816711 19.179813,94.074638 19.189323,86.391617 
	C29.570240,67.601936 43.668186,52.198799 60.258736,39.612976 
	C86.709991,19.546677 116.746979,7.229038 149.872742,2.923901 
	C150.652008,2.822625 151.293991,1.664941 152.000000,1.000000 
	C170.687561,1.000000 189.375122,1.000000 208.531342,0.999999 
M446.761505,491.633331 
	C451.933777,492.462189 457.106049,493.291016 463.432831,494.304901 
	C462.092346,492.618805 461.494507,491.887054 460.918121,491.138794 
	C453.006165,480.867401 444.853394,470.769348 437.279327,460.254486 
	C432.771240,453.996155 434.188110,450.359497 439.974823,445.353363 
	C449.252716,437.326935 459.369781,429.800934 466.881317,420.286407 
	C494.453491,385.362000 503.732269,346.323822 489.052765,303.275116 
	C480.714447,278.822510 465.294189,259.157104 445.167450,243.208405 
	C430.068878,231.244125 413.476013,221.888077 394.291168,215.849716 
	C365.084442,205.686234 335.115875,203.306335 304.703796,208.102249 
	C262.957184,214.685608 226.972809,232.469406 199.906815,265.648468 
	C174.929733,296.266846 165.867203,331.301605 175.162170,370.005615 
	C183.286575,403.835541 203.651642,429.573822 232.285919,448.502380 
	C278.048309,478.753326 328.029755,485.511566 380.938568,472.855164 
	C386.478668,471.529907 391.079956,471.892426 396.164185,474.475189 
	C411.957428,482.497955 428.557312,488.335419 446.761505,491.633331 
z"/>
<path fill="#000000" opacity="1.000000" stroke="none" 
	d="
M151.531342,1.000000 
	C151.293991,1.664941 150.652008,2.822625 149.872742,2.923901 
	C116.746979,7.229038 86.709991,19.546677 60.258736,39.612976 
	C43.668186,52.198799 29.570240,67.601936 18.858822,86.584579 
	C14.555833,96.386261 10.711554,105.683754 6.904330,114.997536 
	C6.941385,115.013817 6.943859,114.933067 6.625399,115.051910 
	C6.253640,115.832787 6.200340,116.494812 6.061381,117.456657 
	C5.936147,118.169807 5.896572,118.583130 5.510584,119.183929 
	C4.371293,123.421867 3.610376,127.479424 2.715818,131.507309 
	C2.654175,131.784882 1.595179,131.840927 1.000000,132.000000 
	C1.000000,88.401161 1.000000,44.802322 1.000000,1.000000 
	C51.020710,1.000000 101.041695,1.000000 151.531342,1.000000 
z"/>
<path fill="#FDFEFF" opacity="1.000000" stroke="none" 
	d="
M1.000000,132.468414 
	C1.595179,131.840927 2.654175,131.784882 2.715818,131.507309 
	C3.610376,127.479424 4.371293,123.421867 5.534107,119.586327 
	C5.946283,120.632408 5.865149,121.492401 6.051589,122.289841 
	C6.982941,126.273392 9.370753,128.766495 13.569173,129.129898 
	C17.678640,129.485611 20.712160,127.809807 22.318872,123.943771 
	C23.853662,120.250786 22.872967,116.971214 19.975159,114.464386 
	C16.900183,111.804283 13.415922,111.494179 9.816683,113.668808 
	C8.902830,114.220963 7.854055,114.549805 6.867275,114.981255 
	C10.711554,105.683754 14.555833,96.386261 18.730614,86.895798 
	C19.179813,94.074638 21.952131,97.816711 27.425783,98.004951 
	C31.632666,98.149620 34.102795,95.690811 36.161186,92.402252 
	C55.983208,60.733932 84.556496,40.372272 119.377708,28.108856 
	C119.688553,27.999380 120.028214,27.971756 120.595177,28.185867 
	C119.449532,29.351324 118.116676,30.337599 116.668617,31.107067 
	C98.006294,41.023888 81.341797,53.391487 67.665497,69.711983 
	C44.713882,97.101082 32.919613,128.033508 35.884499,164.184143 
	C37.405033,182.723877 42.682854,200.070679 51.333691,216.304596 
	C61.553135,235.482101 75.550751,251.572525 93.692825,263.790894 
	C96.091225,265.406189 96.361656,266.714539 94.662567,268.987183 
	C90.290543,274.835175 86.165268,280.868134 81.772903,286.700287 
	C77.622574,292.211029 73.257736,297.560242 68.987244,302.980499 
	C63.248871,304.201813 57.510494,305.423126 50.583557,306.897400 
	C57.778240,297.909271 64.042976,290.218933 70.139656,282.397583 
	C72.486748,279.386536 74.539032,276.132477 76.572502,272.893005 
	C81.038116,265.778839 80.342041,262.106354 73.487129,257.353882 
	C60.761719,248.531464 49.936699,237.805573 41.114113,225.103729 
	C26.693640,204.342636 19.115459,181.247665 18.115643,156.020691 
	C17.930010,151.336884 16.305822,147.788681 11.708323,146.456528 
	C6.963339,145.081619 3.733313,147.497925 1.267494,151.791275 
	C1.000000,145.645599 1.000000,139.291214 1.000000,132.468414 
z"/>
<path fill="#000000" opacity="1.000000" stroke="none" 
	d="
M482.468658,513.000000 
	C482.478119,512.282532 482.806915,511.365967 483.457336,510.878296 
	C490.351624,505.708954 490.787811,496.778931 484.966827,490.373138 
	C475.588776,480.052948 466.586700,469.391724 457.373169,458.920898 
	C455.552765,456.852081 455.633423,455.786011 458.044800,453.913391 
	C479.190521,437.492737 494.560791,416.647583 503.857605,391.582245 
	C507.041443,382.998199 508.693726,373.847534 511.099335,364.970245 
	C511.254028,364.399445 511.871552,363.954071 512.636902,363.725159 
	C513.000000,413.545685 513.000000,463.091339 513.000000,513.000000 
	C502.982025,513.000000 492.959686,513.000000 482.468658,513.000000 
z"/>
<path fill="#E8EDFC" opacity="1.000000" stroke="none" 
	d="
M446.093567,491.284271 
	C428.557312,488.335419 411.957428,482.497955 396.164185,474.475189 
	C391.079956,471.892426 386.478668,471.529907 380.938568,472.855164 
	C328.029755,485.511566 278.048309,478.753326 232.285919,448.502380 
	C203.651642,429.573822 183.286575,403.835541 175.162170,370.005615 
	C165.867203,331.301605 174.929733,296.266846 199.906815,265.648468 
	C226.972809,232.469406 262.957184,214.685608 304.703796,208.102249 
	C335.115875,203.306335 365.084442,205.686234 394.695404,216.354630 
	C396.153778,217.613663 397.193512,218.388901 398.264282,219.118622 
	C409.067902,226.481262 420.618896,232.963913 430.519562,241.386841 
	C447.779480,256.070679 461.190918,273.991943 469.651062,295.281372 
	C477.696228,315.526550 480.903595,336.452240 477.753326,358.090698 
	C475.249908,375.286041 470.366241,391.904053 460.977692,406.602203 
	C454.146210,417.297119 446.370361,427.517914 437.991882,437.050385 
	C432.390869,443.422882 424.993866,448.216827 418.191895,453.891266 
	C418.578125,454.765259 418.845886,455.952454 419.524353,456.817596 
	C427.285461,466.714508 435.126587,476.548645 442.897675,486.437836 
	C444.089203,487.954102 445.034424,489.663940 446.093567,491.284271 
M314.433868,359.011261 
	C323.888519,368.587738 336.059418,370.671661 346.579010,364.515198 
	C356.609222,358.645233 361.579254,346.788574 358.466980,335.793060 
	C355.507690,325.338074 348.477478,318.983917 337.901489,317.130737 
	C327.224274,315.259827 317.279785,320.151367 311.918365,329.117218 
	C306.220306,338.645996 306.928955,348.858246 314.433868,359.011261 
M406.226227,364.440521 
	C419.419281,370.955566 432.968567,367.753662 440.495270,356.342133 
	C447.549683,345.646637 445.518097,331.111969 435.827423,322.946503 
	C424.425812,313.339386 407.634338,315.154633 398.676575,326.962708 
	C389.686707,338.813049 392.703796,354.963318 406.226227,364.440521 
M251.936264,367.768555 
	C252.904266,367.532166 253.874985,367.306305 254.839859,367.057770 
	C269.127533,363.377441 277.297241,348.506531 272.823517,334.327576 
	C268.577393,320.869843 253.257614,313.379578 239.844757,318.203308 
	C228.177704,322.399261 221.010925,334.698914 223.192764,346.781616 
	C225.551880,359.846069 236.631607,368.225159 251.936264,367.768555 
z"/>
<path fill="#C4D7FB" opacity="1.000000" stroke="none" 
	d="
M69.405121,303.044617 
	C73.257736,297.560242 77.622574,292.211029 81.772903,286.700287 
	C86.165268,280.868134 90.290543,274.835175 94.662567,268.987183 
	C96.361656,266.714539 96.091225,265.406189 93.692825,263.790894 
	C75.550751,251.572525 61.553135,235.482101 51.333691,216.304596 
	C42.682854,200.070679 37.405033,182.723877 35.884499,164.184143 
	C32.919613,128.033508 44.713882,97.101082 67.665497,69.711983 
	C81.341797,53.391487 98.006294,41.023888 116.668617,31.107067 
	C118.116676,30.337599 119.449532,29.351324 120.983551,28.130625 
	C131.906601,25.217690 142.566635,21.899237 153.478806,20.199156 
	C188.140366,14.799002 221.817719,19.086010 253.890396,33.275169 
	C292.938629,50.550365 322.558258,77.426224 336.379669,118.987251 
	C343.642059,140.825226 343.631927,163.142166 337.734558,185.367493 
	C337.354980,186.798019 334.895660,188.666367 333.403870,188.666306 
	C302.282379,188.665298 272.830811,195.802856 244.149475,208.681976 
	C243.111435,208.469788 242.579269,208.309525 242.171158,208.468262 
	C226.698074,214.486038 211.799576,221.604462 198.297897,231.401184 
	C177.573151,246.438965 160.911819,264.922729 149.972626,288.272247 
	C143.627655,287.098145 137.320297,285.573181 130.922958,284.887726 
	C127.355774,284.505554 123.210190,284.597717 120.062767,286.061707 
	C105.270248,292.942139 90.206360,298.913849 74.228844,302.400024 
	C72.777756,302.716614 71.292427,302.876221 69.405121,303.044617 
M271.472351,129.746994 
	C259.335907,127.066338 247.011459,133.090088 242.153427,144.077026 
	C237.352798,154.934143 240.703033,168.275497 250.034088,174.950317 
	C259.004761,181.367340 268.632538,182.091797 278.176422,176.758850 
	C287.822968,171.368530 292.129669,162.520340 290.853699,151.637680 
	C289.551605,140.532211 283.052795,133.250839 271.472351,129.746994 
M69.127144,154.507416 
	C69.491226,156.801163 69.656998,159.147781 70.252197,161.379913 
	C73.625847,174.032028 86.578140,182.148209 99.551689,179.839813 
	C112.813843,177.480087 121.287209,165.601883 120.067856,151.079651 
	C119.057922,139.051453 107.711456,129.109177 95.047516,128.986145 
	C83.628860,128.875198 70.622726,137.137543 69.127144,154.507416 
M176.030228,179.917419 
	C177.695465,179.961578 179.361420,180.062210 181.025803,180.040817 
	C192.386627,179.894760 202.811249,171.351654 205.041519,160.388062 
	C207.637848,147.625015 201.699692,135.996078 190.033203,130.996582 
	C179.303619,126.398590 166.688065,130.088379 159.682220,139.336990 
	C149.990860,152.130844 154.353409,174.824112 176.030228,179.917419 
z"/>
<path fill="#C9D8FC" opacity="1.000000" stroke="none" 
	d="
M446.427551,491.458801 
	C445.034424,489.663940 444.089203,487.954102 442.897675,486.437836 
	C435.126587,476.548645 427.285461,466.714508 419.524353,456.817596 
	C418.845886,455.952454 418.578125,454.765259 418.191895,453.891266 
	C424.993866,448.216827 432.390869,443.422882 437.991882,437.050385 
	C446.370361,427.517914 454.146210,417.297119 460.977692,406.602203 
	C470.366241,391.904053 475.249908,375.286041 477.753326,358.090698 
	C480.903595,336.452240 477.696228,315.526550 469.651062,295.281372 
	C461.190918,273.991943 447.779480,256.070679 430.519562,241.386841 
	C420.618896,232.963913 409.067902,226.481262 398.264282,219.118622 
	C397.193512,218.388901 396.153778,217.613663 395.026550,216.533310 
	C413.476013,221.888077 430.068878,231.244125 445.167450,243.208405 
	C465.294189,259.157104 480.714447,278.822510 489.052765,303.275116 
	C503.732269,346.323822 494.453491,385.362000 466.881317,420.286407 
	C459.369781,429.800934 449.252716,437.326935 439.974823,445.353363 
	C434.188110,450.359497 432.771240,453.996155 437.279327,460.254486 
	C444.853394,470.769348 453.006165,480.867401 460.918121,491.138794 
	C461.494507,491.887054 462.092346,492.618805 463.432831,494.304901 
	C457.106049,493.291016 451.933777,492.462189 446.427551,491.458801 
z"/>
<path fill="#A3C3FD" opacity="1.000000" stroke="none" 
	d="
M150.289001,288.490784 
	C160.911819,264.922729 177.573151,246.438965 198.297897,231.401184 
	C211.799576,221.604462 226.698074,214.486038 242.171158,208.468262 
	C242.579269,208.309525 243.111435,208.469788 243.791321,208.734070 
	C235.978470,213.992264 227.722092,218.657440 219.986694,224.067520 
	C197.614212,239.714676 179.797577,259.468445 168.383881,284.432037 
	C165.970581,289.710297 162.840363,290.733429 157.971008,289.913025 
	C155.517838,289.499695 153.060715,289.109772 150.289001,288.490784 
z"/>
<path fill="#4890FF" opacity="1.000000" stroke="none" 
	d="
M6.904330,114.997536 
	C7.854055,114.549805 8.902830,114.220963 9.816683,113.668808 
	C13.415922,111.494179 16.900183,111.804283 19.975159,114.464386 
	C22.872967,116.971214 23.853662,120.250786 22.318872,123.943771 
	C20.712160,127.809807 17.678640,129.485611 13.569173,129.129898 
	C9.370753,128.766495 6.982941,126.273392 6.051589,122.289841 
	C5.865149,121.492401 5.946283,120.632408 5.880519,119.398857 
	C5.896572,118.583130 5.936147,118.169807 6.347260,117.255249 
	C6.793818,116.147034 6.868839,115.540054 6.943859,114.933067 
	C6.943859,114.933067 6.941385,115.013817 6.904330,114.997536 
z"/>
<path fill="#FDFEFF" opacity="1.000000" stroke="none" 
	d="
M6.625400,115.051910 
	C6.868839,115.540054 6.793818,116.147034 6.432919,116.955429 
	C6.200340,116.494812 6.253640,115.832787 6.625400,115.051910 
z"/>
<path fill="#448EFF" opacity="1.000000" stroke="none" 
	d="
M314.194580,358.741119 
	C306.928955,348.858246 306.220306,338.645996 311.918365,329.117218 
	C317.279785,320.151367 327.224274,315.259827 337.901489,317.130737 
	C348.477478,318.983917 355.507690,325.338074 358.466980,335.793060 
	C361.579254,346.788574 356.609222,358.645233 346.579010,364.515198 
	C336.059418,370.671661 323.888519,368.587738 314.194580,358.741119 
M325.572113,340.206696 
	C324.971039,347.457275 330.010803,352.436737 336.054199,350.480682 
	C340.138855,349.158630 342.318665,346.346222 342.145721,341.936859 
	C341.991089,337.993469 339.935822,335.256012 336.242920,334.267120 
	C331.436096,332.979980 327.852112,334.853607 325.572113,340.206696 
z"/>
<path fill="#448EFF" opacity="1.000000" stroke="none" 
	d="
M405.914734,364.240601 
	C392.703796,354.963318 389.686707,338.813049 398.676575,326.962708 
	C407.634338,315.154633 424.425812,313.339386 435.827423,322.946503 
	C445.518097,331.111969 447.549683,345.646637 440.495270,356.342133 
	C432.968567,367.753662 419.419281,370.955566 405.914734,364.240601 
M427.727631,342.485870 
	C427.517242,341.520233 427.421814,340.511261 427.077026,339.596283 
	C425.395111,335.133057 421.173309,332.945496 416.760010,334.181183 
	C412.635803,335.335968 410.166534,339.322174 410.902740,343.817902 
	C411.620880,348.203461 414.533447,350.601044 418.709381,350.791840 
	C423.717621,351.020721 426.605042,348.049683 427.727631,342.485870 
z"/>
<path fill="#448EFF" opacity="1.000000" stroke="none" 
	d="
M251.510162,367.821594 
	C236.631607,368.225159 225.551880,359.846069 223.192764,346.781616 
	C221.010925,334.698914 228.177704,322.399261 239.844757,318.203308 
	C253.257614,313.379578 268.577393,320.869843 272.823517,334.327576 
	C277.297241,348.506531 269.127533,363.377441 254.839859,367.057770 
	C253.874985,367.306305 252.904266,367.532166 251.510162,367.821594 
M241.177124,337.901520 
	C239.246124,341.513000 239.214294,345.368164 242.371735,347.847931 
	C244.537445,349.548828 248.503540,351.038849 250.648422,350.155426 
	C253.303024,349.062042 256.219788,345.581940 256.570740,342.821198 
	C256.883270,340.362518 254.467407,336.597229 252.156097,334.985779 
	C248.530823,332.458313 244.565292,333.778412 241.177124,337.901520 
z"/>
<path fill="#448EFF" opacity="1.000000" stroke="none" 
	d="
M271.872375,129.848053 
	C283.052795,133.250839 289.551605,140.532211 290.853699,151.637680 
	C292.129669,162.520340 287.822968,171.368530 278.176422,176.758850 
	C268.632538,182.091797 259.004761,181.367340 250.034088,174.950317 
	C240.703033,168.275497 237.352798,154.934143 242.153427,144.077026 
	C247.011459,133.090088 259.335907,127.066338 271.872375,129.848053 
M257.045471,155.301437 
	C257.471069,156.541092 257.690796,157.907379 258.360809,158.996719 
	C260.395599,162.304871 263.766510,164.158585 267.190155,162.701263 
	C269.852173,161.568130 273.161072,158.700378 273.500702,156.234253 
	C273.879028,153.487427 271.993042,149.373138 269.728394,147.534836 
	C264.822021,143.552155 258.578186,147.275787 257.045471,155.301437 
z"/>
<path fill="#448EFF" opacity="1.000000" stroke="none" 
	d="
M69.130478,154.082703 
	C70.622726,137.137543 83.628860,128.875198 95.047516,128.986145 
	C107.711456,129.109177 119.057922,139.051453 120.067856,151.079651 
	C121.287209,165.601883 112.813843,177.480087 99.551689,179.839813 
	C86.578140,182.148209 73.625847,174.032028 70.252197,161.379913 
	C69.656998,159.147781 69.491226,156.801163 69.130478,154.082703 
M99.110809,147.192932 
	C95.674690,145.398239 92.015770,145.345566 89.549736,148.242645 
	C87.835457,150.256561 86.664322,153.448364 86.720032,156.082855 
	C86.800224,159.875015 89.684624,162.285019 93.476784,162.917130 
	C97.261932,163.548065 100.444687,162.187805 102.182533,158.680298 
	C104.264275,154.478714 103.490448,150.673553 99.110809,147.192932 
z"/>
<path fill="#448EFF" opacity="1.000000" stroke="none" 
	d="
M175.604675,179.857910 
	C154.353409,174.824112 149.990860,152.130844 159.682220,139.336990 
	C166.688065,130.088379 179.303619,126.398590 190.033203,130.996582 
	C201.699692,135.996078 207.637848,147.625015 205.041519,160.388062 
	C202.811249,171.351654 192.386627,179.894760 181.025803,180.040817 
	C179.361420,180.062210 177.695465,179.961578 175.604675,179.857910 
M181.248047,163.007156 
	C187.090591,161.145996 189.773361,157.256348 188.460068,152.550720 
	C187.280518,148.324310 183.248718,145.556946 179.083801,146.114990 
	C174.779190,146.691742 171.759842,150.294266 171.837906,154.760437 
	C171.923050,159.630844 174.596085,162.203125 181.248047,163.007156 
z"/>
<path fill="#F9FBFF" opacity="1.000000" stroke="none" 
	d="
M325.703247,339.848450 
	C327.852112,334.853607 331.436096,332.979980 336.242920,334.267120 
	C339.935822,335.256012 341.991089,337.993469 342.145721,341.936859 
	C342.318665,346.346222 340.138855,349.158630 336.054199,350.480682 
	C330.010803,352.436737 324.971039,347.457275 325.703247,339.848450 
z"/>
<path fill="#FAFCFF" opacity="1.000000" stroke="none" 
	d="
M427.684814,342.858398 
	C426.605042,348.049683 423.717621,351.020721 418.709381,350.791840 
	C414.533447,350.601044 411.620880,348.203461 410.902740,343.817902 
	C410.166534,339.322174 412.635803,335.335968 416.760010,334.181183 
	C421.173309,332.945496 425.395111,335.133057 427.077026,339.596283 
	C427.421814,340.511261 427.517242,341.520233 427.684814,342.858398 
z"/>
<path fill="#F9FCFF" opacity="1.000000" stroke="none" 
	d="
M241.400513,337.580902 
	C244.565292,333.778412 248.530823,332.458313 252.156097,334.985779 
	C254.467407,336.597229 256.883270,340.362518 256.570740,342.821198 
	C256.219788,345.581940 253.303024,349.062042 250.648422,350.155426 
	C248.503540,351.038849 244.537445,349.548828 242.371735,347.847931 
	C239.214294,345.368164 239.246124,341.513000 241.400513,337.580902 
z"/>
<path fill="#FBFCFF" opacity="1.000000" stroke="none" 
	d="
M257.029968,154.911774 
	C258.578186,147.275787 264.822021,143.552155 269.728394,147.534836 
	C271.993042,149.373138 273.879028,153.487427 273.500702,156.234253 
	C273.161072,158.700378 269.852173,161.568130 267.190155,162.701263 
	C263.766510,164.158585 260.395599,162.304871 258.360809,158.996719 
	C257.690796,157.907379 257.471069,156.541092 257.029968,154.911774 
z"/>
<path fill="#FAFCFF" opacity="1.000000" stroke="none" 
	d="
M99.433449,147.413391 
	C103.490448,150.673553 104.264275,154.478714 102.182533,158.680298 
	C100.444687,162.187805 97.261932,163.548065 93.476784,162.917130 
	C89.684624,162.285019 86.800224,159.875015 86.720032,156.082855 
	C86.664322,153.448364 87.835457,150.256561 89.549736,148.242645 
	C92.015770,145.345566 95.674690,145.398239 99.433449,147.413391 
z"/>
<path fill="#FAFCFF" opacity="1.000000" stroke="none" 
	d="
M180.845825,163.024429 
	C174.596085,162.203125 171.923050,159.630844 171.837906,154.760437 
	C171.759842,150.294266 174.779190,146.691742 179.083801,146.114990 
	C183.248718,145.556946 187.280518,148.324310 188.460068,152.550720 
	C189.773361,157.256348 187.090591,161.145996 180.845825,163.024429 
z"/>
</svg>